<svg width="38" height="38" viewBox="0 0 38 38" fill="none" xmlns="http://www.w3.org/2000/svg">
<g clip-path="url(#clip0_2002_2)">
<path d="M37.5646 17.9493C37.5642 17.9488 37.5638 17.9483 37.5633 17.9479L29.8071 10.2291C29.2261 9.65088 28.2862 9.65303 27.7079 10.2342C27.1295 10.8152 27.1318 11.7551 27.7128 12.3334L32.9203 17.5156H1.48437C0.664555 17.5156 0 18.1802 0 19C0 19.8198 0.664555 20.4844 1.48437 20.4844H32.9202L27.7129 25.6666C27.1318 26.2449 27.1296 27.1848 27.7079 27.7658C28.2863 28.347 29.2262 28.349 29.8072 27.7709L37.5634 20.0521C37.5638 20.0517 37.5642 20.0512 37.5647 20.0507C38.1461 19.4705 38.1442 18.5276 37.5646 17.9493Z" fill="#24E40B"/>
</g>
<defs>
<clipPath id="clip0_2002_2">
<rect width="38" height="38" fill="white"/>
</clipPath>
</defs>
</svg>
