<svg width="60" height="60" viewBox="0 0 60 60" fill="none" xmlns="http://www.w3.org/2000/svg">
<path d="M0 5.45454C0 2.44208 2.44208 0 5.45455 0H54.5455C57.5579 0 60 2.44208 60 5.45455V54.5455C60 57.5579 57.5579 60 54.5455 60H5.45454C2.44208 60 0 57.5579 0 54.5455V5.45454Z" fill="#24E40B"/>
<path d="M41 25.6923C41 27.2564 40.6336 28.6923 39.9009 30C39.1682 31.282 38.043 32.3205 36.5252 33.1154C35.0075 33.9103 33.1234 34.3077 30.8729 34.3077H26.7121V44H20V17H30.8729C33.071 17 34.929 17.3718 36.4467 18.1154C37.9645 18.859 39.1028 19.8846 39.8617 21.1923C40.6206 22.5 41 24 41 25.6923ZM30.3626 29.0769C31.6449 29.0769 32.6 28.7821 33.228 28.1923C33.8561 27.6026 34.1701 26.7692 34.1701 25.6923C34.1701 24.6154 33.8561 23.7821 33.228 23.1923C32.6 22.6026 31.6449 22.3077 30.3626 22.3077H26.7121V29.0769H30.3626Z" fill="white"/>
</svg>
