<svg width="32" height="32" viewBox="0 0 40 40" fill="none" xmlns="http://www.w3.org/2000/svg">
<g clip-path="url(#clip0_2786_2)">
<path d="M37.5 35.0001H2.50002C1.11925 35.0001 0 33.8807 0 32.5C0 31.1194 1.11925 30 2.50002 30H37.5001C38.8808 30 40.0001 31.1194 40.0001 32.5C40 33.8807 38.8808 35.0001 37.5 35.0001Z" fill="white"/>
<path d="M37.5 22.5H2.50002C1.11925 22.5 0 21.3807 0 20C0 18.6194 1.11925 17.5 2.50002 17.5H37.5001C38.8808 17.5 40.0001 18.6193 40.0001 20C40.0001 21.3808 38.8808 22.5 37.5 22.5Z" fill="white"/>
<path d="M37.5 9.99998H2.50002C1.11925 9.99998 0 8.88073 0 7.49996C0 6.11919 1.11925 4.99995 2.50002 4.99995H37.5001C38.8808 4.99995 40.0001 6.11919 40.0001 7.49996C40.0001 8.88073 38.8808 9.99998 37.5 9.99998Z" fill="white"/>
</g>
<defs>
<clipPath id="clip0_2786_2">
<rect width="40" height="40" fill="white"/>
</clipPath>
</defs>
</svg>
