<svg width="32" height="32" viewBox="0 0 40 40" fill="none" xmlns="http://www.w3.org/2000/svg">
<g clip-path="url(#clip0_148_2)">
<path d="M37.5 35H2.50002C1.11925 35 0 33.8807 0 32.5C0 31.1193 1.11925 30 2.50002 30H37.5001C38.8808 30 40.0001 31.1193 40.0001 32.5C40 33.8807 38.8808 35 37.5 35Z" fill="#B2B2B2"/>
<path d="M37.5 22.5H2.50002C1.11925 22.5 0 21.3807 0 20C0 18.6194 1.11925 17.5 2.50002 17.5H37.5001C38.8808 17.5 40.0001 18.6193 40.0001 20C40.0001 21.3808 38.8808 22.5 37.5 22.5Z" fill="#B2B2B2"/>
<path d="M37.5 9.99997H2.50002C1.11925 9.99997 0 8.88072 0 7.49996C0 6.11919 1.11925 4.99994 2.50002 4.99994H37.5001C38.8808 4.99994 40.0001 6.11919 40.0001 7.49996C40.0001 8.88072 38.8808 9.99997 37.5 9.99997Z" fill="#B2B2B2"/>
</g>
<defs>
<clipPath id="clip0_148_2">
<rect width="40" height="40" fill="white"/>
</clipPath>
</defs>
</svg>
